<?xml version="1.0" encoding="UTF-8" standalone="no"?>
<svg
   width="16"
   height="11"
   viewBox="0 0 16 11"
   fill="none"
   version="1.1"
   id="svg1"
   sodipodi:docname="idleTemplate.svg"
   inkscape:export-filename="idleTemplate.png"
   inkscape:export-xdpi="120"
   inkscape:export-ydpi="120"
   inkscape:version="1.4 (e7c3feb100, 2024-10-09)"
   xmlns:inkscape="http://www.inkscape.org/namespaces/inkscape"
   xmlns:sodipodi="http://sodipodi.sourceforge.net/DTD/sodipodi-0.dtd"
   xmlns="http://www.w3.org/2000/svg"
   xmlns:svg="http://www.w3.org/2000/svg">
  <defs
     id="defs1" />
  <sodipodi:namedview
     id="namedview1"
     pagecolor="#505050"
     bordercolor="#ffffff"
     borderopacity="1"
     inkscape:showpageshadow="0"
     inkscape:pageopacity="0"
     inkscape:pagecheckerboard="1"
     inkscape:deskcolor="#d1d1d1"
     inkscape:zoom="104"
     inkscape:cx="8"
     inkscape:cy="5.5"
     inkscape:window-width="2560"
     inkscape:window-height="1355"
     inkscape:window-x="0"
     inkscape:window-y="0"
     inkscape:window-maximized="1"
     inkscape:current-layer="svg1" />
  <path
     d="M12.9 4.02667C12.4467 1.72667 10.4267 0 8 0C6.07333 0 4.4 1.09333 3.56667 2.69333C1.56 2.90667 0 4.60667 0 6.66667C0 8.87333 1.79333 10.6667 4 10.6667H12.6667C14.5067 10.6667 16 9.17333 16 7.33333C16 5.57333 14.6333 4.14667 12.9 4.02667ZM12.6667 9.33333H4C2.52667 9.33333 1.33333 8.14 1.33333 6.66667C1.33333 5.3 2.35333 4.16 3.70667 4.02L4.42 3.94667L4.75333 3.31333C5.38667 2.09333 6.62667 1.33333 8 1.33333C9.74667 1.33333 11.2533 2.57333 11.5933 4.28667L11.7933 5.28667L12.8133 5.36C13.8533 5.42667 14.6667 6.3 14.6667 7.33333C14.6667 8.43333 13.7667 9.33333 12.6667 9.33333ZM6.66667 6.78667L5.27333 5.39333L4.33333 6.33333L6.66667 8.66667L10.6733 4.66L9.73333 3.72L6.66667 6.78667Z"
     fill="#404245"
     id="path1" />
</svg>
