<svg viewBox="0 0 33 33" fill="none" width="16" height="16">
  <rect x="0.618" y="0.718" width="32" height="32" rx="10.568" fill="url(#drive_svg__paint0_linear_11347_30928)"></rect>
  <g filter="url(#drive_svg__filter0_d_11347_30928)" fill="#fff">
    <path fill-rule="evenodd" clip-rule="evenodd" d="M16.61 18.913a5.25 5.25 0 00-.228-1.54 5.455 5.455 0 00-.398-.96 5.25 5.25 0 00-.927-1.25 5.318 5.318 0 00-2.972-1.496 5.484 5.484 0 00-.779-.058 5.25 5.25 0 00-1.54.229 5.358 5.358 0 00-1.406.665 5.288 5.288 0 00-1.953 2.38 5.276 5.276 0 00-.398 2.29 5.306 5.306 0 005.037 5.037c.087.004.174.006.26.006h8.486v-5.303H16.61z"></path>
    <path d="M19.791 24.216a7.425 7.425 0 100-14.85 7.425 7.425 0 000 14.85z"></path>
  </g>
  <defs>
    <linearGradient id="drive_svg__paint0_linear_11347_30928" x1="4.126" y1="29.682" x2="39.046" y2="-5.32" gradientUnits="userSpaceOnUse">
      <stop offset="0.248" stop-color="#FF4759"></stop>
      <stop offset="1" stop-color="#FFD600"></stop>
    </linearGradient>
    <filter id="drive_svg__filter0_d_11347_30928" x="4.371" y="8.061" width="24.477" height="18.113" filterUnits="userSpaceOnUse" color-interpolation-filters="sRGB">
      <feFlood flood-opacity="0" result="BackgroundImageFix"></feFlood>
      <feColorMatrix in="SourceAlpha" values="0 0 0 0 0 0 0 0 0 0 0 0 0 0 0 0 0 0 127 0" result="hardAlpha"></feColorMatrix>
      <feOffset dy="0.326"></feOffset>
      <feGaussianBlur stdDeviation="0.816"></feGaussianBlur>
      <feComposite in2="hardAlpha" operator="out"></feComposite>
      <feColorMatrix values="0 0 0 0 0 0 0 0 0 0 0 0 0 0 0 0 0 0 0.1 0"></feColorMatrix>
      <feBlend in2="BackgroundImageFix" result="effect1_dropShadow_11347_30928"></feBlend>
      <feBlend in="SourceGraphic" in2="effect1_dropShadow_11347_30928" result="shape"></feBlend>
    </filter>
  </defs>
</svg>
