<svg height="48" viewBox="0 0 384 32" xmlns="http://www.w3.org/2000/svg"><title>sprite-files-type</title><g fill="none" fill-rule="evenodd"><path d="M1 2h12v4h18v24H1V2z" fill="#E2F1FF"/><path d="M0 1.998C0 1.448.45 1 1.005 1h11.96c.556 0 1.01.443 1.013 1.01L14 5h17.007c.548 0 .993.45.993 1.003v23.994c0 .554-.452 1.003-.993 1.003H.993C.443 31 0 30.553 0 30.002V1.998zM1 2h12v4h18v24H1V2zm0 7h30v1H1V9z" fill="#6EB4F7"/><path d="M36 1h18l6 6v24H36V1z" fill="#FFF"/><path d="M53 1H36v30h24V8h-7V1zm1 .5L59.5 7H54V1.5zM35 .993c0-.55.45-.993.995-.993H54l7 7v24.005c0 .55-.45.995-1.003.995H36.003C35.45 32 35 31.548 35 31.007V.993z" fill="#B2C5DB"/><path fill="#FFF" d="M68 1h24v30H68z"/><path d="M67 .993c0-.55.45-.993 1.003-.993h23.994C92.55 0 93 .452 93 .993v30.014c0 .55-.45.993-1.003.993H68.003C67.45 32 67 31.548 67 31.007V.993zM68 1h24v30H68V1z" fill="#B2C5DB"/><path d="M78 1h2v2h-2V1zm0 4h2v2h-2V5zm0 4h2v2h-2V9zm2-6h2v2h-2V3zm0 4h2v2h-2V7zm-2 5h4v7h-4v-7zm1 1h2v2h-2v-2z" fill="#4F5B69"/><path d="M100 1h18l6 6v24h-24V1z" fill="#FFF"/><path d="M117 1h-17v30h24V8h-7V1zm1 .5l5.5 5.5H118V1.5zM99 .993c0-.55.45-.993.995-.993H118l7 7v24.005c0 .55-.45.995-1.003.995h-23.994C99.45 32 99 31.548 99 31.007V.993z" fill="#B2C5DB"/><g stroke="#9C59FF" stroke-width="2"><path d="M108 22l-4-4 4-4M116 22l4-4-4-4" stroke-linejoin="round"/><path d="M110 25l4-14"/></g><path d="M132 1h18l6 6v24h-24V1z" fill="#FFF"/><path d="M149 1h-17v30h24V8h-7V1zm1 .5l5.5 5.5H150V1.5zm-19-.507c0-.55.45-.993.995-.993H150l7 7v24.005c0 .55-.45.995-1.003.995h-23.994c-.554 0-1.003-.452-1.003-.993V.993z" fill="#B2C5DB"/><path d="M137 11h14v2h-14v-2zm0 4h12v2h-12v-2zm0 4h14v2h-14v-2zm0 4h10v2h-10v-2z" fill="#76A2ED"/><g><path d="M161 3h24l6 6v20h-30V3z" fill="#FFF"/><path d="M184 3h-23v26h30V10h-7V3zm1 .5l5.5 5.5H185V3.5zm-25-.503c0-.55.455-.997.995-.997H185l7 7v20c0 .553-.452 1-.993 1h-30.014c-.55 0-.993-.44-.993-.997V2.997z" fill="#B2C5DB"/><path d="M169.996 18h16v2h-16v-2zm0 4h16v2h-16v-2zM166 18h2v2h-2v-2zm0 4h2v2h-2v-2zm10-6c2.21 0 4-1.79 4-4h-4V8c-2.21 0-4 1.79-4 4s1.79 4 4 4zm1-5V7c2 0 4 2 4 4h-4z" fill="#FF634C"/></g><g><path d="M196 1h18l6 6v24h-24V1z" fill="#FFF"/><path d="M213 1h-17v30h24V8h-7V1zm1 .5l5.5 5.5H214V1.5zm-19-.507c0-.55.45-.993.995-.993H214l7 7v24.005c0 .55-.45.995-1.003.995h-23.994c-.554 0-1.003-.452-1.003-.993V.993z" fill="#B2C5DB"/><path d="M200 9h4v2h-4V9zm0-4h4v2h-4V5zm0 8h4v2h-4v-2zm0 4h4v2h-4v-2zm0 4h4v2h-4v-2zm0 4h4v2h-4v-2zm6-16h4v2h-4V9zm0-4h4v2h-4V5zm0 8h4v2h-4v-2zm0 4h4v2h-4v-2zm0 4h4v2h-4v-2zm0 4h4v2h-4v-2zm6-12h4v2h-4v-2zm0 4h4v2h-4v-2zm0 4h4v2h-4v-2zm0 4h4v2h-4v-2z" fill="#54C67A"/></g><g><path d="M228 1h18l6 6v24h-24V1z" fill="#FFF"/><path d="M245 1h-17v30h24V8h-7V1zm1 .5l5.5 5.5H246V1.5zm-19-.507c0-.55.45-.993.995-.993H246l7 7v24.005c0 .55-.45.995-1.003.995h-23.994c-.554 0-1.003-.452-1.003-.993V.993z" fill="#B2C5DB"/><path d="M233 11h14v2h-14v-2zm0 4h12v2h-12v-2zM233.066 19.784h1.904c.283 0 .548.028.796.084.248.056.464.15.648.28.184.13.33.304.436.52.107.216.16.48.16.796 0 .304-.055.568-.164.792-.11.224-.257.408-.444.552-.187.144-.403.25-.648.32s-.507.104-.784.104h-.728V25h-1.176v-5.216zm1.832 2.512c.64 0 .96-.277.96-.832 0-.272-.08-.464-.244-.576-.163-.112-.4-.168-.716-.168h-.656v1.576h.656zm3.016-2.512h1.472c.4 0 .76.05 1.08.152.32.1.595.257.824.468.23.21.405.48.528.804.123.325.184.712.184 1.16 0 .448-.06.837-.184 1.168-.123.33-.296.604-.52.82-.224.216-.492.377-.804.484-.312.107-.66.16-1.044.16h-1.536v-5.216zm1.4 4.264c.224 0 .427-.03.608-.088.18-.06.336-.153.464-.284.128-.13.228-.303.3-.516.072-.213.108-.477.108-.792 0-.31-.036-.57-.108-.78-.072-.21-.172-.38-.3-.504-.128-.125-.283-.215-.464-.268-.18-.053-.384-.08-.608-.08h-.224v3.312h.224zm3.68-4.264h3.288v.992h-2.112v1.208h1.808v.992h-1.808V25h-1.176v-5.216z" fill="#FF3F3F"/></g><g><path d="M260 1h18l6 6v24h-24V1z" fill="#FFF"/><path d="M277 1h-17v30h24V8h-7V1zm1 .5l5.5 5.5H278V1.5zm-19-.507c0-.55.45-.993.995-.993H278l7 7v24.005c0 .55-.45.995-1.003.995h-23.994c-.554 0-1.003-.452-1.003-.993V.993z" fill="#B2C5DB"/><path d="M263 15.568c0-.597.06-1.12.178-1.568.118-.45.285-.82.5-1.115.215-.295.473-.516.772-.664.3-.146.633-.22 1-.22.787 0 1.392.29 1.816.87.424.58.636 1.48.636 2.698 0 .602-.06 1.128-.177 1.577-.12.45-.286.822-.5 1.12-.216.298-.475.52-.777.67-.303.146-.638.22-1.006.22-.792 0-1.397-.307-1.815-.92-.418-.612-.627-1.5-.627-2.667zm3.705 0c0-.105-.002-.205-.005-.3s-.008-.19-.014-.28l-2.292 2.19c.193.598.546.896 1.057.896.4 0 .71-.2.927-.6.22-.4.328-1.035.328-1.906zm-2.507 0c0 .098 0 .19.004.28.003.088.008.178.014.27l2.283-2.192c-.188-.563-.54-.845-1.058-.845-.4 0-.707.203-.922.606-.215.402-.322 1.03-.322 1.882zm5.35 0c0-.597.06-1.12.18-1.568.117-.45.284-.82.5-1.115.214-.295.472-.516.77-.664.3-.146.634-.22 1.002-.22.786 0 1.39.29 1.815.87.424.58.636 1.48.636 2.698 0 .602-.058 1.128-.177 1.577-.118.45-.285.822-.5 1.12-.215.298-.474.52-.777.67-.302.146-.637.22-1.005.22-.79 0-1.396-.307-1.814-.92-.418-.612-.627-1.5-.627-2.667zm3.706 0c0-.105-.002-.205-.005-.3-.004-.095-.01-.19-.015-.28l-2.292 2.19c.193.598.546.896 1.057.896.4 0 .708-.2.926-.6.218-.4.328-1.035.328-1.906zm-2.508 0c0 .098.002.19.005.28l.015.27 2.283-2.192c-.187-.563-.54-.845-1.057-.845-.4 0-.706.203-.92.606-.216.402-.324 1.03-.324 1.882zm5.988 2.368h1.43V13.64l-1.234.994-.56-.786 2.132-1.71h.823v5.798h1.404v1.08h-3.996v-1.08zM263 24.413c0-.596.06-1.12.178-1.568.118-.45.285-.82.5-1.115.215-.295.473-.516.772-.664.3-.147.633-.22 1-.22.787 0 1.392.29 1.816.87.424.58.636 1.478.636 2.697 0 .603-.06 1.128-.177 1.577-.12.45-.286.822-.5 1.12-.216.3-.475.52-.777.67-.303.146-.638.22-1.006.22-.792 0-1.397-.306-1.815-.92-.418-.612-.627-1.5-.627-2.667zm3.705 0c0-.105-.002-.205-.005-.3s-.008-.188-.014-.28l-2.292 2.192c.193.596.546.894 1.057.894.4 0 .71-.2.927-.6.22-.4.328-1.036.328-1.907zm-2.507 0c0 .098 0 .19.004.28.003.088.008.178.014.27l2.283-2.192c-.188-.562-.54-.844-1.058-.844-.4 0-.707.202-.922.605-.215.404-.322 1.03-.322 1.883zm5.987 2.368h1.43v-4.294l-1.234.993-.56-.787 2.133-1.71h.824v5.798h1.403v1.082h-3.995v-1.08zm5.913-2.367c0-.596.06-1.12.177-1.568.12-.45.286-.82.5-1.115.216-.295.473-.516.773-.664.3-.147.633-.22 1-.22.787 0 1.392.29 1.816.87.424.58.636 1.478.636 2.697 0 .603-.06 1.128-.178 1.577-.118.45-.285.822-.5 1.12-.215.3-.474.52-.777.67-.302.146-.638.22-1.005.22-.793 0-1.398-.306-1.815-.92-.418-.612-.627-1.5-.627-2.667zm3.704 0c0-.105 0-.205-.004-.3-.003-.095-.008-.188-.014-.28l-2.292 2.192c.193.596.545.894 1.057.894.398 0 .707-.2.925-.6.218-.4.327-1.036.327-1.907zm-2.507 0c0 .098.002.19.005.28.003.088.008.178.014.27l2.283-2.192c-.187-.562-.54-.844-1.057-.844-.4 0-.707.202-.922.605-.215.404-.323 1.03-.323 1.883z" fill="#4F5B69"/></g><g><path fill="#FFF" d="M290 2h28v28h-28z"/><path d="M289 1.998c0-.55.447-.998.998-.998h28.004c.55 0 .998.447.998.998v28.004c0 .55-.447.998-.998.998h-28.004c-.55 0-.998-.447-.998-.998V1.998zM290 2h28v28h-28V2z" fill="#B2C5DB"/><path d="M301 21.5c0 1.38-1.343 2.5-3 2.5s-3-1.12-3-2.5 1.343-2.5 3-2.5c.35 0 .687.05 1 .142V10.5S303.5 8 309 8c1 0 2 .5 2 1v11.5c0 1.38-1.343 2.5-3 2.5s-3-1.12-3-2.5 1.343-2.5 3-2.5c.35 0 .687.05 1 .142V13c-6.5 0-8 2-8 2v6.5z" fill="#43D9CC"/></g><g><path fill="#FFF" d="M322 2h28v28h-28z"/><path d="M321 1.998c0-.55.447-.998.998-.998h28.004c.55 0 .998.447.998.998v28.004c0 .55-.447.998-.998.998h-28.004c-.55 0-.998-.447-.998-.998V1.998zM322 2h28v28h-28V2z" fill="#B2C5DB"/><path d="M332 10.615c0-.554.38-.775.853-.49l8.294 4.976c.47.283.473.74 0 1.024l-8.294 4.977c-.47.283-.853.056-.853-.49v-9.995z" fill="#FF405D"/><path d="M326 2h1v28h-1V2zm-4 22h4v1h-4v-1zm0-6h4v1h-4v-1zm0-5h4v1h-4v-1zm0-6h4v1h-4V7zM345 2h1v28h-1V2zm1 22h4v1h-4v-1zm0-6h4v1h-4v-1zm0-5h4v1h-4v-1zm0-6h4v1h-4V7z" fill="#B2C5DB"/></g><g transform="translate(352 3)"><path fill="#FFF" d="M1 1h30v24H1z"/><path d="M0 1.003C0 .45.452 0 .993 0h30.014c.55 0 .993.45.993 1.003v23.994c0 .554-.452 1.003-.993 1.003H.993C.443 26 0 25.55 0 24.997V1.003zM1 1h30v24H1V1z" fill="#B2C5DB"/><path d="M4 16l2.29-2.29c.392-.392 1.024-.396 1.416-.004l2.588 2.588c.39.39 1.026.386 1.412 0l7.588-7.588c.39-.39 1.03-.382 1.416.004L28 16v6H4v-6z" fill="#76D43B"/><circle fill="#FFC619" cx="6.5" cy="7.5" r="2.5"/></g></g></svg>
