<svg width="288" height="48" viewBox="0 0 288 48" xmlns="http://www.w3.org/2000/svg"><title>sprite-desktop-lg</title><g fill="none" fill-rule="evenodd"><path d="M24 46c12.15 0 22-9.85 22-22S36.15 2 24 2 2 11.85 2 24s9.85 22 22 22z" fill="#FFC644"/><path d="M24 2C11.85 2 2 11.85 2 24s9.85 22 22 22V2z" fill="#FFBA1C"/><path d="M24 46c12.15 0 22-9.85 22-22S36.15 2 24 2 2 11.85 2 24s9.85 22 22 22z" stroke="#000" stroke-width="2" stroke-linecap="round" stroke-linejoin="round"/><ellipse fill="#000" cx="15" cy="19" rx="3" ry="5"/><path d="M11 29s2 8 13 8 13-8 13-8M28 20s0-3 4-3 4 3 4 3" stroke="#000" stroke-width="2" stroke-linecap="round" stroke-linejoin="round"/><g><path d="M89 28V5.004C89 3.897 88.108 3 87.003 3H50.997C49.894 3 49 3.89 49 5.004v20.992c0 1.107.898 2.004 1.998 2.004H55v8l8-8h26z" stroke="#000" stroke-width="2" stroke-linecap="round" stroke-linejoin="round" fill="#4DCEC5"/><path d="M65 22c0-2.5 1.5-4 4-4h19v9H65v-5z" fill="#2FB2A9"/><path d="M79.004 39c.55 0 1.352.285 1.78.628l8.43 6.744c.435.347.786.175.786-.37v-6.005c0-.55.444-.997 1-.997h3c.552 0 1-.45 1-1.005v-14.86c0-.555-.45-1.005-1.003-1.005H70.003c-.554 0-1.003.452-1.003 1.005v14.86c0 .555.445 1.005.996 1.005h9.008z" stroke="#000" stroke-width="2" stroke-linecap="round" stroke-linejoin="round" fill="#4EDFCE"/><path d="M53 11V8.01c0-.558.453-1.01.997-1.01H61M72 27v-1c0-.552.443-1 1.01-1H76" stroke="#000" stroke-width="2" stroke-linecap="round" stroke-linejoin="round"/></g><g><path d="M120 1c-12.7 0-23 10.297-23 23 0 10.162 6.59 18.784 15.73 21.825 1.148.213 1.57-.5 1.57-1.106 0-.55-.02-2.362-.03-4.284-6.4 1.392-7.75-2.713-7.75-2.713-1.046-2.66-2.553-3.366-2.553-3.366-2.087-1.427.157-1.398.157-1.398 2.31.16 3.526 2.37 3.526 2.37 2.05 3.515 5.38 2.5 6.693 1.91.206-1.485.802-2.5 1.46-3.074-5.11-.582-10.48-2.554-10.48-11.367 0-2.512.9-4.564 2.37-6.175-.238-.58-1.025-2.918.224-6.086 0 0 1.93-.62 6.326 2.356 1.835-.51 3.803-.765 5.757-.774 1.955.01 3.924.265 5.762.774 4.39-2.976 6.32-2.357 6.32-2.357 1.25 3.167.463 5.506.224 6.085 1.475 1.61 2.367 3.663 2.367 6.174 0 8.833-5.38 10.778-10.502 11.347.826.714 1.56 2.114 1.56 4.26 0 3.077-.025 5.554-.025 6.312 0 .61.414 1.328 1.58 1.102C136.417 42.777 143 34.16 143 24c0-12.703-10.298-23-23-23zm-14.386 32.764c-.05.115-.23.15-.394.07-.167-.075-.26-.23-.206-.345.05-.12.23-.152.396-.073.167.075.262.233.204.347zm1.132 1.01c-.11.1-.324.054-.47-.107-.15-.16-.18-.374-.067-.478.112-.102.32-.055.47.106.15.162.18.375.066.478zm.776 1.29c-.14.1-.372.007-.514-.197-.14-.205-.14-.45.003-.548.144-.1.37-.01.515.192.14.208.14.453-.003.553zm1.312 1.497c-.126.14-.394.103-.59-.087-.202-.185-.258-.448-.13-.587.126-.14.396-.1.594.088.2.185.26.45.126.587zm1.697.506c-.055.18-.313.262-.574.186-.26-.08-.43-.29-.378-.472.054-.18.314-.267.577-.185.26.08.43.288.376.47zm1.932.214c.006.19-.215.347-.488.35-.275.007-.498-.147-.5-.333 0-.192.215-.348.49-.352.274-.005.498.147.498.335zm1.896-.072c.033.185-.157.375-.43.426-.266.048-.513-.066-.547-.25-.032-.19.162-.38.428-.428.272-.048.516.064.55.252z" fill="#959BA1"/><path d="M120 1c-12.7 0-23 10.297-23 23 0 10.162 6.59 18.784 15.73 21.825 1.148.213 1.57-.5 1.57-1.106 0-.55-.02-2.362-.03-4.284-6.4 1.392-7.75-2.713-7.75-2.713-1.046-2.66-2.553-3.366-2.553-3.366-2.087-1.427.157-1.398.157-1.398 2.31.16 3.526 2.37 3.526 2.37 2.05 3.515 5.38 2.5 6.693 1.91.206-1.485.802-2.5 1.46-3.074-5.11-.582-10.48-2.554-10.48-11.367 0-2.512.9-4.564 2.37-6.175-.238-.58-1.025-2.918.224-6.086 0 0 1.93-.62 6.326 2.356 1.835-.51 3.803-.765 5.757-.774V1zm-14.386 32.764c-.05.115-.23.15-.394.07-.167-.075-.26-.23-.206-.345.05-.12.23-.152.396-.073.167.075.262.233.204.347zm1.132 1.01c-.11.1-.324.054-.47-.107-.15-.16-.18-.374-.067-.478.112-.102.32-.055.47.106.15.162.18.375.066.478zm.776 1.29c-.14.1-.372.007-.514-.197-.14-.205-.14-.45.003-.548.144-.1.37-.01.515.192.14.208.14.453-.003.553zm1.312 1.497c-.126.14-.394.103-.59-.087-.202-.185-.258-.448-.13-.587.126-.14.396-.1.594.088.2.185.26.45.126.587zm1.697.506c-.055.18-.313.262-.574.186-.26-.08-.43-.29-.378-.472.054-.18.314-.267.577-.185.26.08.43.288.376.47zm1.932.214c.006.19-.215.347-.488.35-.275.007-.498-.147-.5-.333 0-.192.215-.348.49-.352.274-.005.498.147.498.335zm1.896-.072c.033.185-.157.375-.43.426-.266.048-.513-.066-.547-.25-.032-.19.162-.38.428-.428.272-.048.516.064.55.252z" fill="#788087"/><path d="M120 1c-12.7 0-23 10.297-23 23 0 10.162 6.59 18.784 15.73 21.825 1.148.213 1.57-.5 1.57-1.106 0-.55-.02-2.362-.03-4.284-6.4 1.392-7.75-2.713-7.75-2.713-1.046-2.66-2.553-3.366-2.553-3.366-2.087-1.427.157-1.398.157-1.398 2.31.16 3.526 2.37 3.526 2.37 2.05 3.515 5.38 2.5 6.693 1.91.206-1.485.802-2.5 1.46-3.074-5.11-.582-10.48-2.554-10.48-11.367 0-2.512.9-4.564 2.37-6.175-.238-.58-1.025-2.918.224-6.086 0 0 1.93-.62 6.326 2.356 1.835-.51 3.803-.765 5.757-.774 1.955.01 3.924.265 5.762.774 4.39-2.976 6.32-2.357 6.32-2.357 1.25 3.167.463 5.506.224 6.085 1.475 1.61 2.367 3.663 2.367 6.174 0 8.833-5.38 10.778-10.502 11.347.826.714 1.56 2.114 1.56 4.26 0 3.077-.025 5.554-.025 6.312 0 .61.414 1.328 1.58 1.102C136.417 42.777 143 34.16 143 24c0-12.703-10.298-23-23-23zm-14.386 32.764c-.05.115-.23.15-.394.07-.167-.075-.26-.23-.206-.345.05-.12.23-.152.396-.073.167.075.262.233.204.347zm1.132 1.01c-.11.1-.324.054-.47-.107-.15-.16-.18-.374-.067-.478.112-.102.32-.055.47.106.15.162.18.375.066.478zm.776 1.29c-.14.1-.372.007-.514-.197-.14-.205-.14-.45.003-.548.144-.1.37-.01.515.192.14.208.14.453-.003.553zm1.312 1.497c-.126.14-.394.103-.59-.087-.202-.185-.258-.448-.13-.587.126-.14.396-.1.594.088.2.185.26.45.126.587zm1.697.506c-.055.18-.313.262-.574.186-.26-.08-.43-.29-.378-.472.054-.18.314-.267.577-.185.26.08.43.288.376.47zm1.932.214c.006.19-.215.347-.488.35-.275.007-.498-.147-.5-.333 0-.192.215-.348.49-.352.274-.005.498.147.498.335zm1.896-.072c.033.185-.157.375-.43.426-.266.048-.513-.066-.547-.25-.032-.19.162-.38.428-.428.272-.048.516.064.55.252z" stroke="#222" stroke-width="2" stroke-linecap="round" stroke-linejoin="round"/></g><g><path d="M145 18v23c0 2.945 2.053 5 5 5h36c2.948 0 5-2.054 5-5V18L168 3l-23 15z" fill="#A582FC"/><path d="M144 18l15 13 2-1h13l2 1 16-13-2-1-15 8h-15l-14-8-2 1z" fill="#8B62F0"/><path d="M145 18v23c0 2.945 2.053 5 5 5h36c2.948 0 5-2.054 5-5V18L168 3l-23 15z" stroke="#222" stroke-width="2" stroke-linecap="round" stroke-linejoin="round"/><path d="M151 36l10-7h13l10 7M145 19l14 11M191 19l-15 11" stroke="#222" stroke-width="2" stroke-linecap="round" stroke-linejoin="round"/><path d="M155 16l12-8" stroke="#000" stroke-width="2" stroke-linecap="round" stroke-linejoin="round" fill="#55ACEE"/></g><g><path d="M239 10.425c-1.69.752-3.51 1.26-5.42 1.486 1.95-1.166 3.444-3.015 4.15-5.22-1.824 1.08-3.843 1.867-5.994 2.29-1.72-1.833-4.174-2.98-6.888-2.98-5.21 0-9.437 4.225-9.437 9.438 0 .738.084 1.458.246 2.15-7.844-.394-14.798-4.15-19.453-9.86-.813 1.393-1.278 3.014-1.278 4.745 0 3.274 1.666 6.163 4.2 7.855-1.548-.05-3.003-.475-4.276-1.182-.002.04-.002.08-.002.12 0 4.572 3.253 8.385 7.57 9.254-.79.214-1.625.33-2.486.33-.61 0-1.2-.06-1.776-.17 1.202 3.75 4.687 6.48 8.816 6.554-3.23 2.532-7.298 4.04-11.72 4.04-.762 0-1.513-.044-2.252-.132 4.178 2.68 9.138 4.24 14.467 4.24 17.36 0 26.85-14.38 26.85-26.85 0-.41-.007-.818-.025-1.223 1.843-1.33 3.444-2.992 4.708-4.885z" fill="#55ACEE"/><path d="M199 11c-2 4 6 9 7 11 0 0-5 .048-8-2-1.712 2.048 6 8 9 9-1 0-3-1-5-1 0 4 5 7 5 7l-5-1-4-5 2-1-4-4-1-5h2l-2-5V9l2-1 2 3zm-5 29s6-1 9-2c1 2 5 4 13 1 12.71-4.766 15-9 15-9s-1 8-15 12-22-2-22-2z" fill="#3291DA"/><path d="M233.58 11.91c1.95-1.166 3.444-3.015 4.15-5.22-1.824 1.08-3.843 1.867-5.994 2.29-1.72-1.833-4.174-2.98-6.888-2.98-5.21 0-9.437 4.225-9.437 9.438 0 .738.084 1.458.246 2.15-7.844-.394-14.798-4.15-19.453-9.86-.813 1.393-1.278 3.014-1.278 4.745 0 3.274 1.666 6.163 4.2 7.855-1.548-.05-3.003-.475-4.276-1.182-.002.04-.002.08-.002.12 0 4.572 3.253 8.385 7.57 9.254-.79.214-1.625.33-2.486.33-.61 0-1.2-.06-1.776-.17 1.202 3.75 4.687 6.48 8.816 6.554-3.23 2.532-7.298 4.04-11.72 4.04-.762 0-1.513-.044-2.252-.132 4.178 2.68 9.138 4.24 14.467 4.24 17.36 0 26.85-14.38 26.85-26.85 0-.41-.007-.818-.025-1.223 1.843-1.33 3.444-2.992 4.708-4.885-1.69.752-3.51 1.26-5.42 1.486z" stroke="#000" stroke-width="2" stroke-linecap="round" stroke-linejoin="round"/></g><g transform="translate(243 1)"><path d="M0 46V5h8V0h10v16h12l-2-6 6-2 10 36-6 2-7-25-1 2v23H0z" fill="#FFAE5F"/><path d="M0 5h4v42H0V5zm8-5h5v46H8V0zm10 16h6v30h-6V16zm11-6l4.5-1.5L39 46 29 10z" fill="#F18D2B"/><rect stroke="#000" stroke-width="2" stroke-linecap="round" stroke-linejoin="round" y="5" width="8" height="41" rx="1"/><rect stroke="#000" stroke-width="2" stroke-linecap="round" stroke-linejoin="round" x="8" width="10" height="46" rx="1"/><rect stroke="#000" stroke-width="2" stroke-linecap="round" stroke-linejoin="round" transform="rotate(-15 36 27)" x="33" y="8" width="6" height="38" rx="1"/><rect stroke="#000" stroke-width="2" stroke-linecap="round" stroke-linejoin="round" x="18" y="16" width="12" height="30" rx="1"/><path d="M4 12v26M13 4v24M24 20v16M11 33h4v8h-4zM22 40h4" stroke="#000" stroke-width="2" stroke-linecap="round" stroke-linejoin="round"/></g></g></svg>