<?xml version="1.0" encoding="UTF-8" standalone="no"?>
<svg
   width="16"
   height="12"
   viewBox="0 0 16 12"
   fill="none"
   version="1.1"
   id="svg1"
   sodipodi:docname="idle.svg"
   inkscape:export-filename="idle.png"
   inkscape:export-xdpi="240"
   inkscape:export-ydpi="240"
   inkscape:version="1.4 (e7c3feb100, 2024-10-09)"
   xmlns:inkscape="http://www.inkscape.org/namespaces/inkscape"
   xmlns:sodipodi="http://sodipodi.sourceforge.net/DTD/sodipodi-0.dtd"
   xmlns="http://www.w3.org/2000/svg"
   xmlns:svg="http://www.w3.org/2000/svg">
  <defs
     id="defs1" />
  <sodipodi:namedview
     id="namedview1"
     pagecolor="#505050"
     bordercolor="#ffffff"
     borderopacity="1"
     inkscape:showpageshadow="0"
     inkscape:pageopacity="0"
     inkscape:pagecheckerboard="1"
     inkscape:deskcolor="#d1d1d1"
     inkscape:zoom="95.333333"
     inkscape:cx="8.0034965"
     inkscape:cy="6"
     inkscape:window-width="2560"
     inkscape:window-height="1355"
     inkscape:window-x="0"
     inkscape:window-y="0"
     inkscape:window-maximized="1"
     inkscape:current-layer="svg1" />
  <path
     d="M12.9 4.69317C12.4467 2.39317 10.4267 0.666504 8 0.666504C6.07333 0.666504 4.4 1.75984 3.56667 3.35984C1.56 3.57317 0 5.27317 0 7.33317C0 9.53984 1.79333 11.3332 4 11.3332H12.6667C14.5067 11.3332 16 9.83984 16 7.99984C16 6.23984 14.6333 4.81317 12.9 4.69317ZM12.6667 9.99984H4C2.52667 9.99984 1.33333 8.8065 1.33333 7.33317C1.33333 5.9665 2.35333 4.8265 3.70667 4.6865L4.42 4.61317L4.75333 3.97984C5.38667 2.75984 6.62667 1.99984 8 1.99984C9.74667 1.99984 11.2533 3.23984 11.5933 4.95317L11.7933 5.95317L12.8133 6.0265C13.8533 6.09317 14.6667 6.9665 14.6667 7.99984C14.6667 9.09984 13.7667 9.99984 12.6667 9.99984ZM6.66667 7.45317L5.27333 6.05984L4.33333 6.99984L6.66667 9.33317L10.6733 5.3265L9.73333 4.3865L6.66667 7.45317Z"
     fill="#0A84FF"
     id="path1" />
</svg>
