<?xml version="1.0" encoding="UTF-8" standalone="no"?>
<svg
   width="16"
   height="13"
   viewBox="0 0 16 13"
   fill="none"
   version="1.1"
   id="svg1"
   sodipodi:docname="offline.svg"
   inkscape:export-filename="offline.png"
   inkscape:export-xdpi="240"
   inkscape:export-ydpi="240"
   inkscape:version="1.4 (e7c3feb100, 2024-10-09)"
   xmlns:inkscape="http://www.inkscape.org/namespaces/inkscape"
   xmlns:sodipodi="http://sodipodi.sourceforge.net/DTD/sodipodi-0.dtd"
   xmlns="http://www.w3.org/2000/svg"
   xmlns:svg="http://www.w3.org/2000/svg">
  <defs
     id="defs1" />
  <sodipodi:namedview
     id="namedview1"
     pagecolor="#505050"
     bordercolor="#ffffff"
     borderopacity="1"
     inkscape:showpageshadow="0"
     inkscape:pageopacity="0"
     inkscape:pagecheckerboard="1"
     inkscape:deskcolor="#d1d1d1"
     inkscape:zoom="88"
     inkscape:cx="8"
     inkscape:cy="6.5"
     inkscape:window-width="2560"
     inkscape:window-height="1355"
     inkscape:window-x="0"
     inkscape:window-y="0"
     inkscape:window-maximized="1"
     inkscape:current-layer="svg1" />
  <path
     d="M14 8.784C13.984 8.784 13.976 8.784 13.96 8.792C13.76 7.44 12.608 6.4 11.2 6.4C10.08 6.4 9.12 7.064 8.672 8.016C7.408 8.08 6.4 9.12 6.4 10.4C6.4 11.728 7.472 12.8 8.8 12.8L14 12.784C15.104 12.784 16 11.888 16 10.784C16 9.68 15.104 8.784 14 8.784ZM14.008 11.2H8.8C8.36 11.2 8 10.84 8 10.4C8 9.96 8.36 9.6 8.8 9.6H9.8V9.4C9.8 8.624 10.424 8 11.2 8C11.976 8 12.6 8.624 12.6 9.4V10.4C12.6 10.4 14 10.4 14.008 10.4C14.232 10.4 14.408 10.576 14.408 10.8C14.4 11.016 14.224 11.2 14.008 11.2ZM4.8 0.208V1.88C2.936 2.544 1.6 4.312 1.6 6.4C1.6 7.816 2.224 9.072 3.2 9.952V8H4.8V12.8H0V11.2H2.184C0.848 10.032 0 8.32 0 6.4C0 3.416 2.04 0.92 4.8 0.208ZM12.8 1.6H10.616C11.76 2.608 12.544 4.008 12.744 5.6H11.128C10.944 4.512 10.384 3.56 9.6 2.848V4.8H8V0H12.8V1.6Z"
     fill="#AAAAAA"
     id="path1" />
</svg>
