<svg width="15" height="16" viewBox="0 0 15 16" fill="none" xmlns="http://www.w3.org/2000/svg">
<path d="M3.2 0.5L7.69661 0.500005L7.69777 0.500006L7.69785 0.500006H7.69796L7.699 0.500006L7.70331 0.500006L7.72077 0.500006L7.79092 0.500005L8.07228 0.500004L8.99289 0.500006L13.9 5.40711V12.8C13.9 14.2912 12.6912 15.5 11.2 15.5H3.2C1.70883 15.5 0.5 14.2912 0.5 12.8V3.2C0.5 1.70883 1.70883 0.5 3.2 0.5Z" fill="#FFF2F9" stroke="#F859A9"/>
<path d="M14.4001 5.4L9.00012 0V2.7931C9.00012 4.23285 10.1284 5.4 11.5201 5.4H14.4001Z" fill="#F74EA9"/>
<g filter="url(#filter0_d_12475_12714)">
<path d="M7.06166 9.07074C7.90962 9.07074 8.59703 8.38333 8.59703 7.53537C8.59703 6.68741 7.90962 6 7.06166 6C6.2137 6 5.52629 6.68741 5.52629 7.53537C5.52629 8.38333 6.2137 9.07074 7.06166 9.07074Z" fill="#F859A9"/>
<path d="M10.0812 11.1276C9.84962 10.4769 9.12769 9.75312 7.06166 9.75312C4.99562 9.75312 4.27369 10.4769 4.04213 11.1276C3.83782 11.7016 4.41103 12.1415 5.02037 12.1415H9.10294C9.71229 12.1415 10.2855 11.7016 10.0812 11.1276Z" fill="#F859A9"/>
</g>
<defs>
<filter id="filter0_d_12475_12714" x="3.02516" y="5.22013" width="8.07296" height="8.09115" filterUnits="userSpaceOnUse" color-interpolation-filters="sRGB">
<feFlood flood-opacity="0" result="BackgroundImageFix"/>
<feColorMatrix in="SourceAlpha" type="matrix" values="0 0 0 0 0 0 0 0 0 0 0 0 0 0 0 0 0 0 127 0" result="hardAlpha"/>
<feOffset dy="0.194968"/>
<feGaussianBlur stdDeviation="0.487418"/>
<feComposite in2="hardAlpha" operator="out"/>
<feColorMatrix type="matrix" values="0 0 0 0 0 0 0 0 0 0 0 0 0 0 0 0 0 0 0.1 0"/>
<feBlend mode="normal" in2="BackgroundImageFix" result="effect1_dropShadow_12475_12714"/>
<feBlend mode="normal" in="SourceGraphic" in2="effect1_dropShadow_12475_12714" result="shape"/>
</filter>
</defs>
</svg>
