<svg xmlns="http://www.w3.org/2000/svg" width="32" height="32" viewBox="0 0 32 32">
    <g fill="none" fill-rule="evenodd">
        <circle cx="16" cy="16" r="16" fill="#D9DDE1"/>
        <path fill="#95999D" d="M22.76 2.84l.3-1.202.089.044c.115.058.23.117.344.177l.335.184.33.19.338.207.325.209c.231.153.459.312.682.477l.261.198.317.251.359.3.237.208.264.242.238.228.246.245.163.17.221.237.273.306.188.22.314.386.167.217.248.336.189.268.183.271.25.39.19.317.086.149c.135.236.264.476.388.72l.18.368.133.287.166.382.156.387c.173.447.327.903.461 1.369l.032.114c-.575.89-1.613 1.055-2.356.605l-.12-.08-.838-.613c-.074-.055-.168-.072-.255-.05l-.063.024-1.075.551c-.003.006-.002.024.002.03l.3.111c.025.01.049.021.07.036.88.611.968 1.649.451 2.339l-.087.106-.758.852c-.502.563-1.342.71-2.01.37l-.13-.074-2.045-1.288c-.007-.005-.011-.007-.023-.002l-.01.008-.161.95v.012l.007.01 1.067.974c.55.502.678 1.291.331 1.929l-.081.134-1.697 2.51-.049.15-.148 3.609c-.014.36-.15.7-.386.973l-.107.113-2.316 2.215c-.316.303-.734.46-1.156.46-.23 0-.459-.046-.674-.14l-.159-.08-1.5-.859c-.353-.201-.616-.525-.74-.902l-.039-.143-.69-3.08-.663-1.739-.007-.01-.013-.005-3.03-.257c-.482-.041-.919-.287-1.198-.666l-.087-.131-1.724-2.902c-.16-.27-.236-.583-.22-.893l.016-.155.434-2.815c.056-.367.237-.697.513-.945l.124-.101 2.648-1.95c.423-.312.978-.404 1.48-.253l.149.052 2.524 1.029.04.013.043.007 3.411.363.207-.053 2.268-1.587.009-.013-.001-.015-.219-.477-.008-.01-.012-.004-6.61-.353c-.255-.014-.507-.086-.729-.21-.582-.326-.903-.955-.817-1.605.08-.599.489-1.096 1.06-1.303l.147-.046 1.918-.504.127-.07 2.376-2.19c.225-.207.509-.349.811-.408l.153-.022 3.652-.367c.01-.001.019-.008.02-.018z"/>
    </g>
</svg>
