<svg width="32" height="32" xmlns="http://www.w3.org/2000/svg" xmlns:xlink="http://www.w3.org/1999/xlink">
  <g fill="none" fill-rule="evenodd">
    <path d="M31 25.503c0 1.103-.89 1.997-2.01 1.997H23.5v-2.246c0-.83-.68-1.504-1.505-1.504h.198c-.832 0-1.506.67-1.506 1.504V27.5h-9.375v-2.246c0-.83-.68-1.504-1.505-1.504h.198c-.831 0-1.505.67-1.505 1.504V27.5H3.01C1.9 27.5 1 26.604 1 25.503V6.997C1 5.894 1.898 5 2.992 5h26.016C30.108 5 31 5.896 31 6.997v18.506z" fill="#FFD799"/>
    <path d="M16.938 9.688h5.625v.937h-5.625v-.938zm0 2.812H27.25v.938H16.937V12.5zm0 2.813H27.25v.937H16.937v-.938zm0 2.812H27.25v.938H16.937v-.938zm-7.5-3.047c-1.554 0-2.813-1.416-2.813-3.164 0-1.747 1.26-3.164 2.813-3.164 1.553 0 2.812 1.417 2.812 3.164 0 1.748-1.26 3.164-2.813 3.164zm-5.626 3.516c0-.703 1.407-2.813 2.813-2.813 1.406 0 .703.703 2.813.703 2.109 0 1.406-.703 2.812-.703s2.813 2.11 2.813 2.813c0 .703 0 1.406-.704 1.406H4.516c-.704 0-.703-.703-.704-1.406z" fill="#FF9300"/>
  </g>
</svg>
