<svg width="48" height="48" viewBox="0 0 48 48" xmlns="http://www.w3.org/2000/svg"><defs><linearGradient x1="100%" y1="75.689%" x2="0%" y2="75.689%" id="a"><stop stop-color="#A75BCB" offset="0%"/><stop stop-color="#855CEA" offset="100%"/></linearGradient></defs><path d="M.431 28.29c-.277.657-.431 1.381-.431 2.141v8.136c0 3.006 2.387 5.432 5.332 5.432h37.336c2.943 0 5.332-2.432 5.332-5.432v-8.136l-.015-.415.015.045-.019-.089c-.039-.474-.137-.93-.287-1.36l-3.881-18.394c-.607-2.88-3.488-5.218-6.435-5.218h-26.704c-2.94 0-5.827 2.336-6.435 5.218l-3.809 18.072zm42.555-.22c1.156.272 2.014 1.3 2.014 2.533v7.794c0 1.438-1.176 2.603-2.623 2.603h-36.753c-1.451 0-2.623-1.161-2.623-2.603v-7.794c0-1.225.854-2.252 2.002-2.53.595-.047 1.259-.074 1.998-.074h34c.734 0 1.394.025 1.986.07zm1.244-2.886c-.893-.123-1.881-.185-2.969-.185h-34.586c-1.064 0-2.031.061-2.907.182 0-.121 3.085-14.415 3.085-14.415.347-1.646 2.468-2.768 4.148-2.768h26c1.683 0 3.854 1.12 4.201 2.768 0 0 3.028 14.232 3.028 14.417zm-38.229 10.815c0-.552.455-1 1-1h33.999c.553 0 1 .444 1 1 0 .552-.455 1-1 1h-33.999c-.553 0-1-.444-1-1zm35-3c.552 0 1-.448 1-1s-.448-1-1-1-1 .448-1 1 .448 1 1 1zm-4 0c.552 0 1-.448 1-1s-.448-1-1-1-1 .448-1 1 .448 1 1 1z" fill="url(#a)"/></svg>