<svg xmlns="http://www.w3.org/2000/svg" viewBox="0 0 32 32"><g fill="none" fill-rule="evenodd"><path fill="#ACF5F7" d="M2 2c0-1.1.9-2 2-2h22a2 2 0 0 1 2 2v28a2 2 0 0 1-2 2H4a2 2 0 0 1-2-2V2z"/><path fill="#0DCBCF" d="M28.01 16.12l2.83 2.83-9.9 9.9-2.47.92a1 1 0 0 1-1.28-1.28l.92-2.47 9.9-9.9zM3.5 25a1.5 1.5 0 0 1 0 3h-2a1.5 1.5 0 0 1 0-3h2zM18 20v2H8v-2h10zM3.5 18a1.5 1.5 0 0 1 0 3h-2a1.5 1.5 0 0 1 0-3h2zm28.05-2.59a2 2 0 0 1 0 2.83l-2.83-2.83a2 2 0 0 1 2.83 0zM22 16v2H8v-2h14zm-6-4v2H8v-2h8zM3.5 11a1.5 1.5 0 0 1 0 3h-2a1.5 1.5 0 0 1 0-3h2zM22 8v2H8V8h14zM3.5 4a1.5 1.5 0 0 1 0 3h-2a1.5 1.5 0 0 1 0-3h2z"/></g></svg>